<mxfile host="app.diagrams.net" modified="2023-04-04T23:28:42.730Z" agent="Mozilla/5.0 (Windows NT 10.0; Win64; x64; rv:109.0) Gecko/20100101 Firefox/111.0" etag="YBLJHNrtYc3e0wJ4vi2M" version="21.1.4" type="github">
  <diagram name="Page-1" id="cCI0zkhlKhUhfMkDJvHl">
    <mxGraphModel dx="2074" dy="1091" grid="1" gridSize="10" guides="1" tooltips="1" connect="1" arrows="1" fold="1" page="1" pageScale="1" pageWidth="1169" pageHeight="827" math="0" shadow="0">
      <root>
        <mxCell id="0" />
        <mxCell id="1" parent="0" />
        <UserObject label="Server 1" lucidchartObjectId="HypIMii0T2fg" id="IuxpBFWN_IE3AxqQZIlk-2">
          <mxCell style="html=1;overflow=block;blockSpacing=1;whiteSpace=wrap;fontSize=18.3;fontColor=#333333;fontStyle=1;spacingLeft=8.4;spacingRight=8.4;spacingTop=2.4;spacing=3.6;verticalAlign=top;strokeOpacity=0;fillOpacity=100;rounded=1;absoluteArcSize=1;arcSize=12;fillColor=#ffdda6;strokeWidth=0.8;" vertex="1" parent="1">
            <mxGeometry x="214" y="250" width="212" height="240" as="geometry" />
          </mxCell>
        </UserObject>
        <UserObject label="Server 2" lucidchartObjectId="kbqIFTrSSb0c" id="IuxpBFWN_IE3AxqQZIlk-3">
          <mxCell style="html=1;overflow=block;blockSpacing=1;whiteSpace=wrap;fontSize=18.3;fontColor=#333333;fontStyle=1;spacingLeft=8.4;spacingRight=8.4;spacingTop=2.4;spacing=3.6;verticalAlign=top;strokeOpacity=0;fillOpacity=100;rounded=1;absoluteArcSize=1;arcSize=12;fillColor=#ffdda6;strokeWidth=0.8;" vertex="1" parent="1">
            <mxGeometry x="440" y="250" width="212" height="240" as="geometry" />
          </mxCell>
        </UserObject>
        <UserObject label="Server 3" lucidchartObjectId="kgqIT20~Yh46" id="IuxpBFWN_IE3AxqQZIlk-4">
          <mxCell style="html=1;overflow=block;blockSpacing=1;whiteSpace=wrap;fontSize=18.3;fontColor=#333333;fontStyle=1;spacingLeft=8.4;spacingRight=8.4;spacingTop=2.4;spacing=3.6;verticalAlign=top;strokeOpacity=0;fillOpacity=100;rounded=1;absoluteArcSize=1;arcSize=12;fillColor=#ffdda6;strokeWidth=0.8;" vertex="1" parent="1">
            <mxGeometry x="667" y="250" width="212" height="240" as="geometry" />
          </mxCell>
        </UserObject>
        <UserObject label="Server 4" lucidchartObjectId="NgqIsRjEYktH" id="IuxpBFWN_IE3AxqQZIlk-5">
          <mxCell style="html=1;overflow=block;blockSpacing=1;whiteSpace=wrap;fontSize=18.3;fontColor=#333333;fontStyle=1;spacingLeft=8.4;spacingRight=8.4;spacingTop=2.4;spacing=3.6;verticalAlign=top;strokeOpacity=0;fillOpacity=100;rounded=1;absoluteArcSize=1;arcSize=12;fillColor=#ffdda6;strokeWidth=0.8;" vertex="1" parent="1">
            <mxGeometry x="894" y="250" width="212" height="240" as="geometry" />
          </mxCell>
        </UserObject>
        <UserObject label="Server 1" lucidchartObjectId="HypIMii0T2fg" id="IuxpBFWN_IE3AxqQZIlk-6">
          <mxCell style="html=1;overflow=block;blockSpacing=1;whiteSpace=wrap;fontSize=18.3;fontColor=#333333;fontStyle=1;spacingLeft=8.4;spacingRight=8.4;spacingTop=2.4;spacing=3.6;verticalAlign=top;strokeOpacity=0;fillOpacity=100;rounded=1;absoluteArcSize=1;arcSize=12;fillColor=#ffdda6;strokeWidth=0.8;" vertex="1" parent="1">
            <mxGeometry x="214" y="540" width="212" height="240" as="geometry" />
          </mxCell>
        </UserObject>
        <UserObject label="Server 2" lucidchartObjectId="kbqIFTrSSb0c" id="IuxpBFWN_IE3AxqQZIlk-7">
          <mxCell style="html=1;overflow=block;blockSpacing=1;whiteSpace=wrap;fontSize=18.3;fontColor=#333333;fontStyle=1;spacingLeft=8.4;spacingRight=8.4;spacingTop=2.4;spacing=3.6;verticalAlign=top;strokeOpacity=0;fillOpacity=100;rounded=1;absoluteArcSize=1;arcSize=12;fillColor=#ffdda6;strokeWidth=0.8;" vertex="1" parent="1">
            <mxGeometry x="440" y="540" width="212" height="240" as="geometry" />
          </mxCell>
        </UserObject>
        <UserObject label="Server 3" lucidchartObjectId="kgqIT20~Yh46" id="IuxpBFWN_IE3AxqQZIlk-8">
          <mxCell style="html=1;overflow=block;blockSpacing=1;whiteSpace=wrap;fontSize=18.3;fontColor=#333333;fontStyle=1;spacingLeft=8.4;spacingRight=8.4;spacingTop=2.4;spacing=3.6;verticalAlign=top;strokeOpacity=0;fillOpacity=100;rounded=1;absoluteArcSize=1;arcSize=12;fillColor=#ffdda6;strokeWidth=0.8;" vertex="1" parent="1">
            <mxGeometry x="667" y="540" width="212" height="240" as="geometry" />
          </mxCell>
        </UserObject>
        <UserObject label="Server 4" lucidchartObjectId="NgqIsRjEYktH" id="IuxpBFWN_IE3AxqQZIlk-9">
          <mxCell style="html=1;overflow=block;blockSpacing=1;whiteSpace=wrap;fontSize=18.3;fontColor=#333333;fontStyle=1;spacingLeft=8.4;spacingRight=8.4;spacingTop=2.4;spacing=3.6;verticalAlign=top;strokeOpacity=0;fillOpacity=100;rounded=1;absoluteArcSize=1;arcSize=12;fillColor=#ffdda6;strokeWidth=0.8;" vertex="1" parent="1">
            <mxGeometry x="894" y="540" width="212" height="240" as="geometry" />
          </mxCell>
        </UserObject>
        <mxCell id="IuxpBFWN_IE3AxqQZIlk-10" value="" style="endArrow=none;dashed=1;html=1;dashPattern=1 3;strokeWidth=2;rounded=0;" edge="1" parent="1">
          <mxGeometry width="50" height="50" relative="1" as="geometry">
            <mxPoint x="660" y="800" as="sourcePoint" />
            <mxPoint x="660" y="210" as="targetPoint" />
          </mxGeometry>
        </mxCell>
        <UserObject label="JOBMANAGER" lucidchartObjectId="HypInYoTSrlu" id="IuxpBFWN_IE3AxqQZIlk-11">
          <mxCell style="html=1;overflow=block;blockSpacing=1;whiteSpace=wrap;fontSize=18.3;fontColor=#ffffff;align=center;spacingLeft=8.4;spacingRight=8.4;spacingTop=2.4;spacing=3.6;strokeOpacity=0;fillOpacity=100;rounded=1;absoluteArcSize=1;arcSize=12;fillColor=#636aff;strokeWidth=0.8;" vertex="1" parent="1">
            <mxGeometry x="227" y="360" width="184" height="49" as="geometry" />
          </mxCell>
        </UserObject>
        <UserObject label="TASKMANAGER" lucidchartObjectId="HypIgOagNPgA" id="IuxpBFWN_IE3AxqQZIlk-12">
          <mxCell style="html=1;overflow=block;blockSpacing=1;whiteSpace=wrap;fontSize=18.3;fontColor=#ffffff;align=center;spacingLeft=8.4;spacingRight=8.4;spacingTop=2.4;spacing=3.6;strokeOpacity=0;fillOpacity=100;rounded=1;absoluteArcSize=1;arcSize=12;fillColor=#636aff;strokeWidth=0.8;" vertex="1" parent="1">
            <mxGeometry x="227" y="420" width="184" height="49" as="geometry" />
          </mxCell>
        </UserObject>
        <UserObject label="JOBMANAGER" lucidchartObjectId="RXpI0It2jUcH" id="IuxpBFWN_IE3AxqQZIlk-13">
          <mxCell style="html=1;overflow=block;blockSpacing=1;whiteSpace=wrap;fontSize=18.3;fontColor=#ffffff;align=center;spacingLeft=8.4;spacingRight=8.4;spacingTop=2.4;spacing=3.6;strokeOpacity=0;fillOpacity=100;rounded=1;absoluteArcSize=1;arcSize=12;fillColor=#636aff;strokeWidth=0.8;" vertex="1" parent="1">
            <mxGeometry x="454" y="360" width="184" height="49" as="geometry" />
          </mxCell>
        </UserObject>
        <UserObject label="TASKMANAGER" lucidchartObjectId="RXpIgnX.f~PW" id="IuxpBFWN_IE3AxqQZIlk-14">
          <mxCell style="html=1;overflow=block;blockSpacing=1;whiteSpace=wrap;fontSize=18.3;fontColor=#ffffff;align=center;spacingLeft=8.4;spacingRight=8.4;spacingTop=2.4;spacing=3.6;strokeOpacity=0;fillOpacity=100;rounded=1;absoluteArcSize=1;arcSize=12;fillColor=#636aff;strokeWidth=0.8;" vertex="1" parent="1">
            <mxGeometry x="454" y="420" width="184" height="49" as="geometry" />
          </mxCell>
        </UserObject>
        <UserObject label="JOBMANAGER" lucidchartObjectId="1XpI324HXPmj" id="IuxpBFWN_IE3AxqQZIlk-15">
          <mxCell style="html=1;overflow=block;blockSpacing=1;whiteSpace=wrap;fontSize=18.3;fontColor=#ffffff;align=center;spacingLeft=8.4;spacingRight=8.4;spacingTop=2.4;spacing=3.6;strokeOpacity=0;fillOpacity=100;rounded=1;absoluteArcSize=1;arcSize=12;fillColor=#636aff;strokeWidth=0.8;" vertex="1" parent="1">
            <mxGeometry x="681" y="360" width="184" height="49" as="geometry" />
          </mxCell>
        </UserObject>
        <UserObject label="TASKMANAGER" lucidchartObjectId="1XpItajlC~17" id="IuxpBFWN_IE3AxqQZIlk-16">
          <mxCell style="html=1;overflow=block;blockSpacing=1;whiteSpace=wrap;fontSize=18.3;fontColor=#ffffff;align=center;spacingLeft=8.4;spacingRight=8.4;spacingTop=2.4;spacing=3.6;strokeOpacity=0;fillOpacity=100;rounded=1;absoluteArcSize=1;arcSize=12;fillColor=#636aff;strokeWidth=0.8;" vertex="1" parent="1">
            <mxGeometry x="681" y="420" width="184" height="49" as="geometry" />
          </mxCell>
        </UserObject>
        <UserObject label="HISTORYSERVER" lucidchartObjectId="8XpIVe4FQzVd" id="IuxpBFWN_IE3AxqQZIlk-17">
          <mxCell style="html=1;overflow=block;blockSpacing=1;whiteSpace=wrap;fontSize=18.3;fontColor=#ffffff;align=center;spacingLeft=8.4;spacingRight=8.4;spacingTop=2.4;spacing=3.6;strokeOpacity=0;fillOpacity=100;rounded=1;absoluteArcSize=1;arcSize=12;fillColor=#636aff;strokeWidth=0.8;" vertex="1" parent="1">
            <mxGeometry x="907" y="360" width="184" height="49" as="geometry" />
          </mxCell>
        </UserObject>
        <UserObject label="TASKMANAGER" lucidchartObjectId="8XpI6pTr3cQC" id="IuxpBFWN_IE3AxqQZIlk-18">
          <mxCell style="html=1;overflow=block;blockSpacing=1;whiteSpace=wrap;fontSize=18.3;fontColor=#ffffff;align=center;spacingLeft=8.4;spacingRight=8.4;spacingTop=2.4;spacing=3.6;strokeOpacity=0;fillOpacity=100;rounded=1;absoluteArcSize=1;arcSize=12;fillColor=#636aff;strokeWidth=0.8;" vertex="1" parent="1">
            <mxGeometry x="907" y="420" width="184" height="49" as="geometry" />
          </mxCell>
        </UserObject>
        <UserObject label="JOBMANAGER" lucidchartObjectId="HypInYoTSrlu" id="IuxpBFWN_IE3AxqQZIlk-19">
          <mxCell style="html=1;overflow=block;blockSpacing=1;whiteSpace=wrap;fontSize=18.3;fontColor=#ffffff;align=center;spacingLeft=8.4;spacingRight=8.4;spacingTop=2.4;spacing=3.6;strokeOpacity=0;fillOpacity=100;rounded=1;absoluteArcSize=1;arcSize=12;fillColor=#636aff;strokeWidth=0.8;" vertex="1" parent="1">
            <mxGeometry x="227" y="650" width="184" height="49" as="geometry" />
          </mxCell>
        </UserObject>
        <UserObject label="TASKMANAGER" lucidchartObjectId="HypIgOagNPgA" id="IuxpBFWN_IE3AxqQZIlk-20">
          <mxCell style="html=1;overflow=block;blockSpacing=1;whiteSpace=wrap;fontSize=18.3;fontColor=#ffffff;align=center;spacingLeft=8.4;spacingRight=8.4;spacingTop=2.4;spacing=3.6;strokeOpacity=0;fillOpacity=100;rounded=1;absoluteArcSize=1;arcSize=12;fillColor=#636aff;strokeWidth=0.8;" vertex="1" parent="1">
            <mxGeometry x="227" y="710" width="184" height="49" as="geometry" />
          </mxCell>
        </UserObject>
        <UserObject label="JOBMANAGER" lucidchartObjectId="RXpI0It2jUcH" id="IuxpBFWN_IE3AxqQZIlk-21">
          <mxCell style="html=1;overflow=block;blockSpacing=1;whiteSpace=wrap;fontSize=18.3;fontColor=#ffffff;align=center;spacingLeft=8.4;spacingRight=8.4;spacingTop=2.4;spacing=3.6;strokeOpacity=0;fillOpacity=100;rounded=1;absoluteArcSize=1;arcSize=12;fillColor=#636aff;strokeWidth=0.8;" vertex="1" parent="1">
            <mxGeometry x="454" y="650" width="184" height="49" as="geometry" />
          </mxCell>
        </UserObject>
        <UserObject label="TASKMANAGER" lucidchartObjectId="RXpIgnX.f~PW" id="IuxpBFWN_IE3AxqQZIlk-22">
          <mxCell style="html=1;overflow=block;blockSpacing=1;whiteSpace=wrap;fontSize=18.3;fontColor=#ffffff;align=center;spacingLeft=8.4;spacingRight=8.4;spacingTop=2.4;spacing=3.6;strokeOpacity=0;fillOpacity=100;rounded=1;absoluteArcSize=1;arcSize=12;fillColor=#636aff;strokeWidth=0.8;" vertex="1" parent="1">
            <mxGeometry x="454" y="710" width="184" height="49" as="geometry" />
          </mxCell>
        </UserObject>
        <UserObject label="JOBMANAGER" lucidchartObjectId="1XpI324HXPmj" id="IuxpBFWN_IE3AxqQZIlk-23">
          <mxCell style="html=1;overflow=block;blockSpacing=1;whiteSpace=wrap;fontSize=18.3;fontColor=#ffffff;align=center;spacingLeft=8.4;spacingRight=8.4;spacingTop=2.4;spacing=3.6;strokeOpacity=0;fillOpacity=100;rounded=1;absoluteArcSize=1;arcSize=12;fillColor=#636aff;strokeWidth=0.8;" vertex="1" parent="1">
            <mxGeometry x="681" y="650" width="184" height="49" as="geometry" />
          </mxCell>
        </UserObject>
        <UserObject label="TASKMANAGER" lucidchartObjectId="1XpItajlC~17" id="IuxpBFWN_IE3AxqQZIlk-24">
          <mxCell style="html=1;overflow=block;blockSpacing=1;whiteSpace=wrap;fontSize=18.3;fontColor=#ffffff;align=center;spacingLeft=8.4;spacingRight=8.4;spacingTop=2.4;spacing=3.6;strokeOpacity=0;fillOpacity=100;rounded=1;absoluteArcSize=1;arcSize=12;fillColor=#636aff;strokeWidth=0.8;" vertex="1" parent="1">
            <mxGeometry x="681" y="710" width="184" height="49" as="geometry" />
          </mxCell>
        </UserObject>
        <UserObject label="HISTORYSERVER" lucidchartObjectId="8XpIVe4FQzVd" id="IuxpBFWN_IE3AxqQZIlk-25">
          <mxCell style="html=1;overflow=block;blockSpacing=1;whiteSpace=wrap;fontSize=18.3;fontColor=#ffffff;align=center;spacingLeft=8.4;spacingRight=8.4;spacingTop=2.4;spacing=3.6;strokeOpacity=0;fillOpacity=100;rounded=1;absoluteArcSize=1;arcSize=12;fillColor=#636aff;strokeWidth=0.8;" vertex="1" parent="1">
            <mxGeometry x="907" y="650" width="184" height="49" as="geometry" />
          </mxCell>
        </UserObject>
        <UserObject label="TASKMANAGER" lucidchartObjectId="8XpI6pTr3cQC" id="IuxpBFWN_IE3AxqQZIlk-26">
          <mxCell style="html=1;overflow=block;blockSpacing=1;whiteSpace=wrap;fontSize=18.3;fontColor=#ffffff;align=center;spacingLeft=8.4;spacingRight=8.4;spacingTop=2.4;spacing=3.6;strokeOpacity=0;fillOpacity=100;rounded=1;absoluteArcSize=1;arcSize=12;fillColor=#636aff;strokeWidth=0.8;" vertex="1" parent="1">
            <mxGeometry x="907" y="710" width="184" height="49" as="geometry" />
          </mxCell>
        </UserObject>
        <UserObject label="NGINX + nginx-ldap-auth" lucidchartObjectId="HypIE5tfspSB" id="IuxpBFWN_IE3AxqQZIlk-27">
          <mxCell style="html=1;overflow=block;blockSpacing=1;whiteSpace=wrap;fontSize=18.3;fontColor=#333333;align=center;spacingLeft=8.4;spacingRight=8.4;spacingTop=2.4;spacing=3.6;verticalAlign=middle;strokeOpacity=0;fillOpacity=100;rounded=1;absoluteArcSize=1;arcSize=12;fillColor=#CACBE8;strokeWidth=0.8;" vertex="1" parent="1">
            <mxGeometry x="227" y="290" width="184" height="54" as="geometry" />
          </mxCell>
        </UserObject>
        <UserObject label="NGINX + nginx-ldap-auth" lucidchartObjectId="RXpI~8YFsiHd" id="IuxpBFWN_IE3AxqQZIlk-28">
          <mxCell style="html=1;overflow=block;blockSpacing=1;whiteSpace=wrap;fontSize=18.3;fontColor=#333333;align=center;spacingLeft=8.4;spacingRight=8.4;spacingTop=2.4;spacing=3.6;verticalAlign=middle;strokeOpacity=0;fillOpacity=100;rounded=1;absoluteArcSize=1;arcSize=12;fillColor=#CACBE8;strokeWidth=0.8;" vertex="1" parent="1">
            <mxGeometry x="454" y="290" width="184" height="54" as="geometry" />
          </mxCell>
        </UserObject>
        <UserObject label="NGINX + nginx-ldap-auth" lucidchartObjectId="1XpIAn_rVOTK" id="IuxpBFWN_IE3AxqQZIlk-29">
          <mxCell style="html=1;overflow=block;blockSpacing=1;whiteSpace=wrap;fontSize=18.3;fontColor=#333333;align=center;spacingLeft=8.4;spacingRight=8.4;spacingTop=2.4;spacing=3.6;verticalAlign=middle;strokeOpacity=0;fillOpacity=100;rounded=1;absoluteArcSize=1;arcSize=12;fillColor=#CACBE8;strokeWidth=0.8;" vertex="1" parent="1">
            <mxGeometry x="681" y="290" width="184" height="54" as="geometry" />
          </mxCell>
        </UserObject>
        <UserObject label="NGINX + nginx-ldap-auth" lucidchartObjectId="8XpIHrtV3hBn" id="IuxpBFWN_IE3AxqQZIlk-30">
          <mxCell style="html=1;overflow=block;blockSpacing=1;whiteSpace=wrap;fontSize=18.3;fontColor=#333333;align=center;spacingLeft=8.4;spacingRight=8.4;spacingTop=2.4;spacing=3.6;verticalAlign=middle;strokeOpacity=0;fillOpacity=100;rounded=1;absoluteArcSize=1;arcSize=12;fillColor=#CACBE8;strokeWidth=0.8;strokeColor=#CACBE8;" vertex="1" parent="1">
            <mxGeometry x="907" y="290" width="184" height="54" as="geometry" />
          </mxCell>
        </UserObject>
        <UserObject label="NGINX + nginx-ldap-auth" lucidchartObjectId="HypIE5tfspSB" id="IuxpBFWN_IE3AxqQZIlk-31">
          <mxCell style="html=1;overflow=block;blockSpacing=1;whiteSpace=wrap;fontSize=18.3;fontColor=#333333;align=center;spacingLeft=8.4;spacingRight=8.4;spacingTop=2.4;spacing=3.6;verticalAlign=middle;strokeOpacity=0;fillOpacity=100;rounded=1;absoluteArcSize=1;arcSize=12;fillColor=#CACBE8;strokeWidth=0.8;" vertex="1" parent="1">
            <mxGeometry x="227" y="580" width="184" height="54" as="geometry" />
          </mxCell>
        </UserObject>
        <UserObject label="NGINX + nginx-ldap-auth" lucidchartObjectId="RXpI~8YFsiHd" id="IuxpBFWN_IE3AxqQZIlk-32">
          <mxCell style="html=1;overflow=block;blockSpacing=1;whiteSpace=wrap;fontSize=18.3;fontColor=#333333;align=center;spacingLeft=8.4;spacingRight=8.4;spacingTop=2.4;spacing=3.6;verticalAlign=middle;strokeOpacity=0;fillOpacity=100;rounded=1;absoluteArcSize=1;arcSize=12;fillColor=#CACBE8;strokeWidth=0.8;" vertex="1" parent="1">
            <mxGeometry x="454" y="580" width="184" height="54" as="geometry" />
          </mxCell>
        </UserObject>
        <UserObject label="NGINX + nginx-ldap-auth" lucidchartObjectId="1XpIAn_rVOTK" id="IuxpBFWN_IE3AxqQZIlk-33">
          <mxCell style="html=1;overflow=block;blockSpacing=1;whiteSpace=wrap;fontSize=18.3;fontColor=#333333;align=center;spacingLeft=8.4;spacingRight=8.4;spacingTop=2.4;spacing=3.6;verticalAlign=middle;strokeOpacity=0;fillOpacity=100;rounded=1;absoluteArcSize=1;arcSize=12;fillColor=#CACBE8;strokeWidth=0.8;" vertex="1" parent="1">
            <mxGeometry x="681" y="580" width="184" height="54" as="geometry" />
          </mxCell>
        </UserObject>
        <UserObject label="NGINX + nginx-ldap-auth" lucidchartObjectId="8XpIHrtV3hBn" id="IuxpBFWN_IE3AxqQZIlk-34">
          <mxCell style="html=1;overflow=block;blockSpacing=1;whiteSpace=wrap;fontSize=18.3;fontColor=#333333;align=center;spacingLeft=8.4;spacingRight=8.4;spacingTop=2.4;spacing=3.6;verticalAlign=middle;strokeOpacity=0;fillOpacity=100;rounded=1;absoluteArcSize=1;arcSize=12;fillColor=#CACBE8;strokeWidth=0.8;strokeColor=#CACBE8;" vertex="1" parent="1">
            <mxGeometry x="907" y="580" width="184" height="54" as="geometry" />
          </mxCell>
        </UserObject>
      </root>
    </mxGraphModel>
  </diagram>
</mxfile>
